<svg id="Layer_1" data-name="Layer 1" xmlns="http://www.w3.org/2000/svg" xmlns:xlink="http://www.w3.org/1999/xlink" viewBox="0 0 208.95 290"><defs><style>.cls-1{fill:url(#linear-gradient);}.cls-2{opacity:0.8;fill:url(#linear-gradient-2);}</style><linearGradient id="linear-gradient" x1="400" y1="150.77" x2="400" y2="449.33" gradientUnits="userSpaceOnUse"><stop offset="0" stop-color="#704bd0"/><stop offset="1" stop-color="#262da8"/></linearGradient><linearGradient id="linear-gradient-2" x1="460.27" y1="185.44" x2="309.71" y2="185.44" gradientUnits="userSpaceOnUse"><stop offset="0" stop-color="#1b1464"/><stop offset="1" stop-color="#e000ff" stop-opacity="0"/></linearGradient></defs><title>Icon ( svg )</title><path class="cls-1" d="M370.15,260.72a5.91,5.91,0,0,0-5.9,5.92v3.26a5.91,5.91,0,1,0,11.81,0v-3.26A5.91,5.91,0,0,0,370.15,260.72Zm-24.26-12.27h-.07a6,6,0,0,0-6,6v34.6a6,6,0,0,0,6,6h.07a6,6,0,0,0,5.91-6v-34.6A6,6,0,0,0,345.89,248.45ZM321.65,286a5.92,5.92,0,0,0-5.93,5.91v12a5.92,5.92,0,0,0,11.84,0v-12A5.91,5.91,0,0,0,321.65,286Zm63.18,143.38c-.91-1.86-1.76-3.74-2.51-5.63-.2-.48-.4-1-.58-1.43a78.9,78.9,0,0,1-2.76-8.42c-.2-.73-.38-1.45-.55-2.18s-.36-1.49-.5-2.23a5.84,5.84,0,0,1-.15-.66c-.17-.76-.31-1.52-.43-2.3-.13-.59-.22-1.15-.3-1.73,0-.21-.05-.43-.09-.65-.19-1.18-.34-2.34-.45-3.54s-.24-2.49-.31-3.78c-.09-1.62-.14-3.25-.14-4.9V295.83a1.1,1.1,0,0,0,0-.25,5.64,5.64,0,0,0-1.65-3.8,3.94,3.94,0,0,0-.68-.54l-.69-.48a4.68,4.68,0,0,0-.45-.2l-1.15-.36a7.47,7.47,0,0,0-1.07-.09,5.73,5.73,0,0,0-5.72,5.72V332a6.47,6.47,0,0,1-7,6.5c-.21,0-.43,0-.63-.06a6.85,6.85,0,0,1-5.41-6.67V319.59a6.06,6.06,0,0,0-5.72-6h-.3a6,6,0,0,0-6,6v25.14a6.2,6.2,0,0,1-1.78,4.34,6.12,6.12,0,0,1-4.77,1.76,6.34,6.34,0,0,1-5.69-6.42V335a5.82,5.82,0,1,0-11.63,0v14.8a76.62,76.62,0,0,0,30.16,60.91h0L359.45,421l16.61,12.68a55,55,0,0,0,16.83,8.73A85.87,85.87,0,0,1,384.83,429.35ZM295.53,155l13.38,40.3a29.32,29.32,0,0,0,27.82,20.06H444.11V344.51a206.13,206.13,0,0,0,29.63-20.81c27-23.09,30.14-41.4,30.5-44.29a77.18,77.18,0,0,1-30.5,55.74l-29.63,22.26L419,376.27a15.57,15.57,0,0,1-18.78-.06l-13-9.94a135.72,135.72,0,0,0-.91,38.07,119.13,119.13,0,0,0,3.92,19.55,95,95,0,0,0,8.31,20A54.19,54.19,0,0,0,409.55,445a55.19,55.19,0,0,0,33.2-11.07l1.36-1,15.36-11.52,14.92-11.22a75.35,75.35,0,0,0,30.07-60.22h0V180.1A25.09,25.09,0,0,0,479.38,155Z" transform="translate(-295.53 -155)"/><path class="cls-2" d="M411.73,155a32.72,32.72,0,0,1,32.72,32.73v27.6l-.34.56v-.53H336.73a29.32,29.32,0,0,1-27.82-20.06L295.53,155Z" transform="translate(-295.53 -155)"/></svg>